<?xml version="1.0" encoding="UTF-8" standalone="no"?>
<!DOCTYPE svg PUBLIC "-//W3C//DTD SVG 1.1//EN"
 "http://www.w3.org/Graphics/SVG/1.1/DTD/svg11.dtd">
<!-- Generated by graphviz version 2.43.0 (0)
 -->
<!-- Title: Graphical Class Hierarchy Pages: 1 -->
<svg width="767pt" height="282pt"
 viewBox="0.00 0.00 767.00 281.50" xmlns="http://www.w3.org/2000/svg" xmlns:xlink="http://www.w3.org/1999/xlink">
<g id="graph0" class="graph" transform="scale(1 1) rotate(0) translate(4 277.5)">
<title>Graphical Class Hierarchy</title>
<!-- Node0 -->
<g id="node1" class="node">
<title>Node0</title>
<g id="a_node1"><a xlink:href="classrobowflex_1_1Planner.html" target="_top" xlink:title="An abstract interface to a motion planning algorithm.">
<polygon fill="none" stroke="black" points="0,-107.5 0,-126.5 107,-126.5 107,-107.5 0,-107.5"/>
<text text-anchor="middle" x="53.5" y="-114.5" font-family="Roboto" font-size="10.00">robowflex::Planner</text>
</a>
</g>
</g>
<!-- Node1 -->
<g id="node2" class="node">
<title>Node1</title>
<g id="a_node2"><a xlink:href="classrobowflex_1_1darts_1_1DARTPlanner.html" target="_top" xlink:title="Wrapper for easy access to DART planning tools via standard Robowflex interface.">
<polygon fill="none" stroke="black" points="149,-214.5 149,-233.5 313,-233.5 313,-214.5 149,-214.5"/>
<text text-anchor="middle" x="231" y="-221.5" font-family="Roboto" font-size="10.00">robowflex::darts::DARTPlanner</text>
</a>
</g>
</g>
<!-- Node0&#45;&gt;Node1 -->
<g id="edge1" class="edge">
<title>Node0&#45;&gt;Node1</title>
<path fill="none" stroke="midnightblue" d="M67.32,-134.83C82.87,-155.08 111.01,-187.57 143,-205 150.2,-208.92 158.14,-212.03 166.22,-214.5"/>
<polygon fill="midnightblue" stroke="midnightblue" points="70.06,-132.65 61.27,-126.73 64.45,-136.84 70.06,-132.65"/>
</g>
<!-- Node2 -->
<g id="node3" class="node">
<title>Node2</title>
<g id="a_node3"><a xlink:href="classrobowflex_1_1OMPL_1_1OMPLInterfacePlanner.html" target="_top" xlink:title="A planner that directly uses MoveIt!&#39;s OMPL planning interface.">
<polygon fill="none" stroke="black" points="143,-165 143,-195 319,-195 319,-165 143,-165"/>
<text text-anchor="start" x="151" y="-183" font-family="Roboto" font-size="10.00">robowflex::OMPL::OMPLInterface</text>
<text text-anchor="middle" x="231" y="-172" font-family="Roboto" font-size="10.00">Planner</text>
</a>
</g>
</g>
<!-- Node0&#45;&gt;Node2 -->
<g id="edge2" class="edge">
<title>Node0&#45;&gt;Node2</title>
<path fill="none" stroke="midnightblue" d="M84.34,-130.93C101.33,-138.57 123.12,-147.91 143,-155 152.77,-158.49 163.28,-161.84 173.51,-164.89"/>
<polygon fill="midnightblue" stroke="midnightblue" points="85.5,-127.61 74.95,-126.65 82.6,-133.98 85.5,-127.61"/>
</g>
<!-- Node3 -->
<g id="node4" class="node">
<title>Node3</title>
<g id="a_node4"><a xlink:href="classrobowflex_1_1PipelinePlanner.html" target="_top" xlink:title="A motion planner that uses the MoveIt! planning pipeline to load a planner plugin.">
<polygon fill="none" stroke="black" points="158,-126.5 158,-145.5 304,-145.5 304,-126.5 158,-126.5"/>
<text text-anchor="middle" x="231" y="-133.5" font-family="Roboto" font-size="10.00">robowflex::PipelinePlanner</text>
</a>
</g>
</g>
<!-- Node0&#45;&gt;Node3 -->
<g id="edge3" class="edge">
<title>Node0&#45;&gt;Node3</title>
<path fill="none" stroke="midnightblue" d="M117.47,-123.82C130.58,-125.24 144.5,-126.74 157.91,-128.2"/>
<polygon fill="midnightblue" stroke="midnightblue" points="117.47,-120.3 107.16,-122.7 116.72,-127.26 117.47,-120.3"/>
</g>
<!-- Node11 -->
<g id="node12" class="node">
<title>Node11</title>
<g id="a_node12"><a xlink:href="classrobowflex_1_1PoolPlanner.html" target="_top" xlink:title="A thread pool of planners P to service requests in a multi&#45;threaded environment simultaneously.">
<polygon fill="none" stroke="black" points="167,-88.5 167,-107.5 295,-107.5 295,-88.5 167,-88.5"/>
<text text-anchor="middle" x="231" y="-95.5" font-family="Roboto" font-size="10.00">robowflex::PoolPlanner</text>
</a>
</g>
</g>
<!-- Node0&#45;&gt;Node11 -->
<g id="edge11" class="edge">
<title>Node0&#45;&gt;Node11</title>
<path fill="none" stroke="midnightblue" d="M117.5,-110.18C133.55,-108.44 150.8,-106.57 166.85,-104.84"/>
<polygon fill="midnightblue" stroke="midnightblue" points="116.72,-106.74 107.16,-111.3 117.47,-113.7 116.72,-106.74"/>
</g>
<!-- Node12 -->
<g id="node13" class="node">
<title>Node12</title>
<g id="a_node13"><a xlink:href="classrobowflex_1_1SimpleCartesianPlanner.html" target="_top" xlink:title="A simple motion planner that uses interpolation of the end&#45;effector in Cartesian space to find a path...">
<polygon fill="none" stroke="black" points="155.5,-39 155.5,-69 306.5,-69 306.5,-39 155.5,-39"/>
<text text-anchor="start" x="163.5" y="-57" font-family="Roboto" font-size="10.00">robowflex::SimpleCartesian</text>
<text text-anchor="middle" x="231" y="-46" font-family="Roboto" font-size="10.00">Planner</text>
</a>
</g>
</g>
<!-- Node0&#45;&gt;Node12 -->
<g id="edge12" class="edge">
<title>Node0&#45;&gt;Node12</title>
<path fill="none" stroke="midnightblue" d="M84.34,-103.07C101.33,-95.43 123.12,-86.09 143,-79 152.77,-75.51 163.28,-72.16 173.51,-69.11"/>
<polygon fill="midnightblue" stroke="midnightblue" points="82.6,-100.02 74.95,-107.35 85.5,-106.39 82.6,-100.02"/>
</g>
<!-- Node13 -->
<g id="node14" class="node">
<title>Node13</title>
<g id="a_node14"><a xlink:href="classrobowflex_1_1TrajOptPlanner.html" target="_top" xlink:title="Robowflex Tesseract TrajOpt Planner.">
<polygon fill="none" stroke="black" points="160,-0.5 160,-19.5 302,-19.5 302,-0.5 160,-0.5"/>
<text text-anchor="middle" x="231" y="-7.5" font-family="Roboto" font-size="10.00">robowflex::TrajOptPlanner</text>
</a>
</g>
</g>
<!-- Node0&#45;&gt;Node13 -->
<g id="edge13" class="edge">
<title>Node0&#45;&gt;Node13</title>
<path fill="none" stroke="midnightblue" d="M67.4,-99.44C83.02,-79.48 111.24,-47.41 143,-30 150.88,-25.68 159.66,-22.29 168.52,-19.63"/>
<polygon fill="midnightblue" stroke="midnightblue" points="64.59,-97.34 61.32,-107.42 70.16,-101.59 64.59,-97.34"/>
</g>
<!-- Node4 -->
<g id="node5" class="node">
<title>Node4</title>
<g id="a_node5"><a xlink:href="classrobowflex_1_1OMPL_1_1OMPLPipelinePlanner.html" target="_top" xlink:title="A robowflex::PipelinePlanner that uses the MoveIt! default OMPL planning pipeline.">
<polygon fill="none" stroke="black" points="355,-170 355,-200 526,-200 526,-170 355,-170"/>
<text text-anchor="start" x="363" y="-188" font-family="Roboto" font-size="10.00">robowflex::OMPL::OMPLPipeline</text>
<text text-anchor="middle" x="440.5" y="-177" font-family="Roboto" font-size="10.00">Planner</text>
</a>
</g>
</g>
<!-- Node3&#45;&gt;Node4 -->
<g id="edge4" class="edge">
<title>Node3&#45;&gt;Node4</title>
<path fill="none" stroke="midnightblue" d="M283.99,-147.86C295.53,-150.52 307.68,-153.34 319,-156 338.06,-160.48 358.8,-165.44 377.61,-169.98"/>
<polygon fill="midnightblue" stroke="midnightblue" points="284.59,-144.41 274.06,-145.58 283.02,-151.23 284.59,-144.41"/>
</g>
<!-- Node9 -->
<g id="node10" class="node">
<title>Node9</title>
<g id="a_node10"><a xlink:href="classrobowflex_1_1opt_1_1CHOMPPipelinePlanner.html" target="_top" xlink:title="A robowflex::PipelinePlanner that uses the MoveIt! CHOMP planning pipeline.">
<polygon fill="none" stroke="black" points="356.5,-121 356.5,-151 524.5,-151 524.5,-121 356.5,-121"/>
<text text-anchor="start" x="364.5" y="-139" font-family="Roboto" font-size="10.00">robowflex::opt::CHOMPPipeline</text>
<text text-anchor="middle" x="440.5" y="-128" font-family="Roboto" font-size="10.00">Planner</text>
</a>
</g>
</g>
<!-- Node3&#45;&gt;Node9 -->
<g id="edge9" class="edge">
<title>Node3&#45;&gt;Node9</title>
<path fill="none" stroke="midnightblue" d="M314.68,-136C328.43,-136 342.7,-136 356.46,-136"/>
<polygon fill="midnightblue" stroke="midnightblue" points="314.28,-132.5 304.28,-136 314.28,-139.5 314.28,-132.5"/>
</g>
<!-- Node10 -->
<g id="node11" class="node">
<title>Node10</title>
<g id="a_node11"><a xlink:href="classrobowflex_1_1opt_1_1TrajOptPipelinePlanner.html" target="_top" xlink:title="A robowflex::PipelinePlanner that uses the MoveIt! TrajOpt planning pipeline.">
<polygon fill="none" stroke="black" points="357.5,-72 357.5,-102 523.5,-102 523.5,-72 357.5,-72"/>
<text text-anchor="start" x="365.5" y="-90" font-family="Roboto" font-size="10.00">robowflex::opt::TrajOptPipeline</text>
<text text-anchor="middle" x="440.5" y="-79" font-family="Roboto" font-size="10.00">Planner</text>
</a>
</g>
</g>
<!-- Node3&#45;&gt;Node10 -->
<g id="edge10" class="edge">
<title>Node3&#45;&gt;Node10</title>
<path fill="none" stroke="midnightblue" d="M286.84,-124.28C297.52,-121.92 308.62,-119.43 319,-117 339.05,-112.32 360.91,-106.95 380.44,-102.07"/>
<polygon fill="midnightblue" stroke="midnightblue" points="285.78,-120.93 276.76,-126.48 287.28,-127.76 285.78,-120.93"/>
</g>
<!-- Node5 -->
<g id="node6" class="node">
<title>Node5</title>
<g id="a_node6"><a xlink:href="classrobowflex_1_1OMPL_1_1Cob4OMPLPipelinePlanner.html" target="_top" xlink:title="Convenience class for the default motion planning pipeline for Cob4.">
<polygon fill="none" stroke="black" points="562.5,-243 562.5,-273 758.5,-273 758.5,-243 562.5,-243"/>
<text text-anchor="start" x="570.5" y="-261" font-family="Roboto" font-size="10.00">robowflex::OMPL::Cob4OMPLPipeline</text>
<text text-anchor="middle" x="660.5" y="-250" font-family="Roboto" font-size="10.00">Planner</text>
</a>
</g>
</g>
<!-- Node4&#45;&gt;Node5 -->
<g id="edge5" class="edge">
<title>Node4&#45;&gt;Node5</title>
<path fill="none" stroke="midnightblue" d="M484.16,-204.11C506.96,-213.87 535.69,-225.46 562,-234 571.87,-237.2 582.41,-240.21 592.79,-242.95"/>
<polygon fill="midnightblue" stroke="midnightblue" points="485.35,-200.81 474.78,-200.05 482.57,-207.24 485.35,-200.81"/>
</g>
<!-- Node6 -->
<g id="node7" class="node">
<title>Node6</title>
<g id="a_node7"><a xlink:href="classrobowflex_1_1OMPL_1_1FetchOMPLPipelinePlanner.html" target="_top" xlink:title="Convenience class for the default motion planning pipeline for Fetch.">
<polygon fill="none" stroke="black" points="562,-194 562,-224 759,-224 759,-194 562,-194"/>
<text text-anchor="start" x="570" y="-212" font-family="Roboto" font-size="10.00">robowflex::OMPL::FetchOMPLPipeline</text>
<text text-anchor="middle" x="660.5" y="-201" font-family="Roboto" font-size="10.00">Planner</text>
</a>
</g>
</g>
<!-- Node4&#45;&gt;Node6 -->
<g id="edge6" class="edge">
<title>Node4&#45;&gt;Node6</title>
<path fill="none" stroke="midnightblue" d="M536.07,-195.41C544.63,-196.35 553.31,-197.31 561.89,-198.25"/>
<polygon fill="midnightblue" stroke="midnightblue" points="536.42,-191.93 526.1,-194.31 535.65,-198.89 536.42,-191.93"/>
</g>
<!-- Node7 -->
<g id="node8" class="node">
<title>Node7</title>
<g id="a_node8"><a xlink:href="classrobowflex_1_1OMPL_1_1R2OMPLPipelinePlanner.html" target="_top" xlink:title="Convenience class for the default motion planning pipeline for R2 (R2C6 full).">
<polygon fill="none" stroke="black" points="568.5,-145 568.5,-175 752.5,-175 752.5,-145 568.5,-145"/>
<text text-anchor="start" x="576.5" y="-163" font-family="Roboto" font-size="10.00">robowflex::OMPL::R2OMPLPipeline</text>
<text text-anchor="middle" x="660.5" y="-152" font-family="Roboto" font-size="10.00">Planner</text>
</a>
</g>
</g>
<!-- Node4&#45;&gt;Node7 -->
<g id="edge7" class="edge">
<title>Node4&#45;&gt;Node7</title>
<path fill="none" stroke="midnightblue" d="M536.27,-174.13C546.95,-172.91 557.82,-171.66 568.45,-170.44"/>
<polygon fill="midnightblue" stroke="midnightblue" points="535.63,-170.68 526.1,-175.3 536.43,-177.64 535.63,-170.68"/>
</g>
<!-- Node8 -->
<g id="node9" class="node">
<title>Node8</title>
<g id="a_node9"><a xlink:href="classrobowflex_1_1OMPL_1_1UR5OMPLPipelinePlanner.html" target="_top" xlink:title="Convenience class for the default motion planning pipeline for UR5.">
<polygon fill="none" stroke="black" points="565,-96 565,-126 756,-126 756,-96 565,-96"/>
<text text-anchor="start" x="573" y="-114" font-family="Roboto" font-size="10.00">robowflex::OMPL::UR5OMPLPipeline</text>
<text text-anchor="middle" x="660.5" y="-103" font-family="Roboto" font-size="10.00">Planner</text>
</a>
</g>
</g>
<!-- Node4&#45;&gt;Node8 -->
<g id="edge8" class="edge">
<title>Node4&#45;&gt;Node8</title>
<path fill="none" stroke="midnightblue" d="M513.35,-166.4C517.69,-164.72 521.94,-162.92 526,-161 543.61,-152.67 544.29,-144.1 562,-136 570.34,-132.18 579.36,-128.88 588.44,-126.04"/>
<polygon fill="midnightblue" stroke="midnightblue" points="511.96,-163.18 503.75,-169.88 514.34,-169.76 511.96,-163.18"/>
</g>
<!-- Node14 -->
<g id="node15" class="node">
<title>Node14</title>
<g id="a_node15"><a xlink:href="classCustomTrajOptPlanner.html" target="_top" xlink:title=" ">
<polygon fill="none" stroke="black" points="378,-0.5 378,-19.5 503,-19.5 503,-0.5 378,-0.5"/>
<text text-anchor="middle" x="440.5" y="-7.5" font-family="Roboto" font-size="10.00">CustomTrajOptPlanner</text>
</a>
</g>
</g>
<!-- Node13&#45;&gt;Node14 -->
<g id="edge14" class="edge">
<title>Node13&#45;&gt;Node14</title>
<path fill="none" stroke="midnightblue" d="M312.42,-10C334.09,-10 357.19,-10 377.66,-10"/>
<polygon fill="midnightblue" stroke="midnightblue" points="312.25,-6.5 302.25,-10 312.25,-13.5 312.25,-6.5"/>
</g>
</g>
</svg>
